<?xml version="1.0"?>
<svg xmlns="http://www.w3.org/2000/svg" xmlns:xlink="http://www.w3.org/1999/xlink" version="1.1" id="Layer_1" x="0px" y="0px" viewBox="0 0 512 512" style="enable-background:new 0 0 512 512;" xml:space="preserve" width="512px" height="512px"><g><g>
	<g>
		<path d="M467,0H45C20.187,0,0,20.187,0,45v302c0,24.813,20.187,45,45,45h156.729l-15,30H166c-24.813,0-45,20.187-45,45v30    c0,8.284,6.716,15,15,15h240c8.284,0,15-6.716,15-15v-30c0-24.813-20.187-45-45-45h-20.729l-15-30H467c24.813,0,45-20.187,45-45    V45C512,20.187,491.813,0,467,0z M316,452h30c8.271,0,15,6.729,15,15v15H151v-15c0-8.271,6.729-15,15-15h30H316z M220.27,422    l15-30h41.459l15,30H220.27z M482,347c0,8.271-6.729,15-15,15c-7.019,0-414.988,0-422,0c-8.271,0-15-6.729-15-15v-15h452V347z     M482,302H30V45c0-8.271,6.729-15,15-15h422c8.271,0,15,6.729,15,15V302z" data-original="#000000" class="active-path" data-old_color="#000000" fill="#4949E7"/>
	</g>
</g><g>
	<g>
		<path d="M416.607,155.393l-60-60c-5.857-5.858-15.355-5.858-21.213,0c-5.858,5.858-5.858,15.355,0,21.213L384.787,166    l-49.393,49.394c-5.858,5.857-5.858,15.355,0,21.212c5.857,5.858,15.356,5.858,21.213,0l60-60    C422.465,170.748,422.465,161.251,416.607,155.393z" data-original="#000000" class="active-path" data-old_color="#000000" fill="#4949E7"/>
	</g>
</g><g>
	<g>
		<path d="M176.607,215.393L127.213,166l49.393-49.394c5.858-5.858,5.858-15.355,0-21.213c-5.857-5.858-15.355-5.858-21.213,0    l-60,60c-5.858,5.858-5.858,15.355,0,21.213l60.001,60c5.857,5.858,15.356,5.858,21.213,0    C182.465,230.748,182.465,221.251,176.607,215.393z" data-original="#000000" class="active-path" data-old_color="#000000" fill="#4949E7"/>
	</g>
</g><g>
	<g>
		<path d="M292.709,92.584c-7.408-3.705-16.42-0.701-20.125,6.708l-60,120c-3.705,7.41-0.702,16.419,6.708,20.125    c7.411,3.706,16.421,0.7,20.125-6.708l60-120C303.122,105.299,300.118,96.29,292.709,92.584z" data-original="#000000" class="active-path" data-old_color="#000000" fill="#4949E7"/>
	</g>
</g></g> </svg>
