<svg width="240" height="64" viewBox="0 0 240 64" fill="none" xmlns="http://www.w3.org/2000/svg">
<path d="M29.1382 36.7397C29.1382 41.2157 28.1177 44.8053 26.0767 47.5088C24.0535 50.1943 21.3143 51.5371 17.8589 51.5371C14.9227 51.5371 12.5505 50.5166 10.7422 48.4756V62.1719H2.98096V21.9424H10.1782L10.4468 24.7891C12.3267 22.5332 14.7795 21.4053 17.8052 21.4053C21.3859 21.4053 24.1699 22.7301 26.1572 25.3799C28.1445 28.0296 29.1382 31.682 29.1382 36.3369V36.7397ZM21.377 36.1758C21.377 33.4723 20.8936 31.3866 19.9268 29.9185C18.9779 28.4504 17.5903 27.7163 15.7642 27.7163C13.3293 27.7163 11.6553 28.6473 10.7422 30.5093V42.4062C11.6911 44.3219 13.383 45.2798 15.8179 45.2798C19.5239 45.2798 21.377 42.2451 21.377 36.1758ZM50.8105 51C50.4525 50.3018 50.1929 49.4334 50.0317 48.395C48.1519 50.4897 45.708 51.5371 42.7002 51.5371C39.8535 51.5371 37.4902 50.7135 35.6104 49.0664C33.7484 47.4193 32.8174 45.3424 32.8174 42.8359C32.8174 39.7565 33.9543 37.3932 36.228 35.7461C38.5197 34.099 41.8229 33.2664 46.1377 33.2485H49.7095V31.5835C49.7095 30.2407 49.3604 29.1665 48.6621 28.3608C47.9818 27.5552 46.8986 27.1523 45.4126 27.1523C44.1056 27.1523 43.0762 27.4657 42.3242 28.0923C41.5902 28.7189 41.2231 29.5783 41.2231 30.6704H33.4619C33.4619 28.9875 33.9811 27.4299 35.0195 25.9976C36.0579 24.5653 37.526 23.4463 39.4238 22.6406C41.3216 21.8171 43.4521 21.4053 45.8154 21.4053C49.3962 21.4053 52.2339 22.3094 54.3286 24.1177C56.4412 25.908 57.4976 28.4325 57.4976 31.6909V44.2861C57.5155 47.0433 57.9004 49.1291 58.6523 50.5435V51H50.8105ZM44.3921 45.6021C45.5379 45.6021 46.5942 45.3514 47.561 44.8501C48.5278 44.3309 49.244 43.6416 49.7095 42.7822V37.7871H46.8091C42.924 37.7871 40.8561 39.1299 40.6055 41.8154L40.5786 42.272C40.5786 43.2388 40.9188 44.0355 41.5991 44.6621C42.2795 45.2887 43.2104 45.6021 44.3921 45.6021ZM79.7876 29.2202C78.7313 29.077 77.8003 29.0054 76.9946 29.0054C74.0584 29.0054 72.1338 29.999 71.2207 31.9863V51H63.4595V21.9424H70.791L71.0059 25.4067C72.5635 22.7391 74.7209 21.4053 77.478 21.4053C78.3374 21.4053 79.1431 21.5216 79.895 21.7544L79.7876 29.2202ZM91.7383 51H83.9502V21.9424H91.7383V51ZM83.4937 14.4229C83.4937 13.2591 83.8786 12.3013 84.6484 11.5493C85.4362 10.7974 86.5015 10.4214 87.8442 10.4214C89.1691 10.4214 90.2254 10.7974 91.0132 11.5493C91.8009 12.3013 92.1948 13.2591 92.1948 14.4229C92.1948 15.6045 91.792 16.5713 90.9863 17.3232C90.1986 18.0752 89.1512 18.4512 87.8442 18.4512C86.5373 18.4512 85.481 18.0752 84.6753 17.3232C83.8875 16.5713 83.4937 15.6045 83.4937 14.4229ZM108.711 39.3447L105.918 42.1377V51H98.1567V9.75H105.918V32.604L107.422 30.6704L114.861 21.9424H124.18L113.679 34.0542L125.093 51H116.177L108.711 39.3447ZM189.895 25.1113C191.954 22.6406 194.541 21.4053 197.656 21.4053C203.958 21.4053 207.154 25.0666 207.244 32.3892V51H199.482V32.604C199.482 30.939 199.124 29.7126 198.408 28.9248C197.692 28.1191 196.501 27.7163 194.836 27.7163C192.563 27.7163 190.916 28.5936 189.895 30.3481V51H182.134V9.75H189.895V25.1113ZM229.937 51C229.578 50.3018 229.319 49.4334 229.158 48.395C227.278 50.4897 224.834 51.5371 221.826 51.5371C218.979 51.5371 216.616 50.7135 214.736 49.0664C212.874 47.4193 211.943 45.3424 211.943 42.8359C211.943 39.7565 213.08 37.3932 215.354 35.7461C217.646 34.099 220.949 33.2664 225.264 33.2485H228.835V31.5835C228.835 30.2407 228.486 29.1665 227.788 28.3608C227.108 27.5552 226.025 27.1523 224.539 27.1523C223.232 27.1523 222.202 27.4657 221.45 28.0923C220.716 28.7189 220.349 29.5783 220.349 30.6704H212.588C212.588 28.9875 213.107 27.4299 214.146 25.9976C215.184 24.5653 216.652 23.4463 218.55 22.6406C220.448 21.8171 222.578 21.4053 224.941 21.4053C228.522 21.4053 231.36 22.3094 233.455 24.1177C235.567 25.908 236.624 28.4325 236.624 31.6909V44.2861C236.641 47.0433 237.026 49.1291 237.778 50.5435V51H229.937ZM223.518 45.6021C224.664 45.6021 225.72 45.3514 226.687 44.8501C227.654 44.3309 228.37 43.6416 228.835 42.7822V37.7871H225.935C222.05 37.7871 219.982 39.1299 219.731 41.8154L219.705 42.272C219.705 43.2388 220.045 44.0355 220.725 44.6621C221.405 45.2887 222.336 45.6021 223.518 45.6021Z" fill="#0084DF"/>
<path d="M146.113 18H136.339L127 36.2613L136.339 53.5862H146.113L136.339 36.2613L146.113 18Z" fill="#0084DF"/>
<path d="M141.552 45.392L156.104 18.7024H165.443L175 36.0272L165.443 53.5862H156.104L165.443 36.0272L160.572 26.9899L146.113 53.5862L141.552 45.392Z" fill="#6804CC"/>
</svg>
