<?xml version="1.0"?>
<svg xmlns="http://www.w3.org/2000/svg" xmlns:xlink="http://www.w3.org/1999/xlink" version="1.1" id="Capa_1" x="0px" y="0px" viewBox="0 0 451.74 451.74" style="enable-background:new 0 0 451.74 451.74;" xml:space="preserve" width="512px" height="512px" class=""><g><path style="fill:#FFB229" d="M446.324,367.381L262.857,41.692c-15.644-28.444-58.311-28.444-73.956,0L5.435,367.381  c-15.644,28.444,4.267,64,36.978,64h365.511C442.057,429.959,461.968,395.825,446.324,367.381z" data-original="#E24C4B" class="" data-old_color="#E24C4B"/><path style="fill:#FFFFFF;" d="M225.879,63.025l183.467,325.689H42.413L225.879,63.025L225.879,63.025z" data-original="#FFFFFF" class=""/><g>
	<path style="fill:#EB7D16" d="M196.013,212.359l11.378,75.378c1.422,8.533,8.533,15.644,18.489,15.644l0,0   c8.533,0,17.067-7.111,18.489-15.644l11.378-75.378c2.844-18.489-11.378-34.133-29.867-34.133l0,0   C207.39,178.225,194.59,193.87,196.013,212.359z" data-original="#3F4448" class="active-path" data-old_color="#3F4448"/>
	<circle style="fill:#EB7D16" cx="225.879" cy="336.092" r="17.067" data-original="#3F4448" class="active-path" data-old_color="#3F4448"/>
</g></g> </svg>
